<svg id="Layer_1" data-name="Layer 1" xmlns="http://www.w3.org/2000/svg" viewBox="0 0 2400 2400"><defs><style>.cls-1{fill:#a2bddd;}.cls-2{fill:#808285;}</style></defs><polygon class="cls-1" points="777.36 494.14 777.36 550.19 1130.36 550.19 1130.36 1268.3 1186.42 1268.3 1186.42 550.19 1186.57 550.19 1186.57 494.14 777.36 494.14"/><polygon class="cls-2" points="1256.18 1211.72 1256.18 703.85 1200.12 703.85 1200.12 1264.09 1199.97 1211.72 1199.97 1267.77 1609.18 1267.77 1609.18 1211.72 1256.18 1211.72"/><path class="cls-1" d="M1562.36,1071.94c-21.3,51.61-68.42,85-120.07,85-72.41,0-131.32-63.66-131.32-141.9,0-78,58.91-141.44,131.32-141.44,52.93,0,100.22,33.1,120.46,84.32l3,7.68h44l-5.68-16.27c-24.93-71.49-88.43-117.69-161.78-117.69-95.27,0-172.78,82.27-172.78,183.4,0,101.38,77.51,183.87,172.78,183.87,35.53,0,69.7-11.49,98.82-33.21,28.39-21.17,50-50.5,62.44-84.8l6-16.43h-44.07Z"/><path class="cls-1" d="M247.75,1631V1452.13H208.11V1424.5H317.53v27.63H277.89V1631Z"/><path class="cls-1" d="M468.28,1631l-22.89-60.85H371.15L348.26,1631H316.44l78.43-206.54h27.07L500.37,1631Zm-33.22-88.48-26.23-79h-.56l-26.52,79Z"/><path class="cls-1" d="M549.26,1631v-74.52l-64.19-132h33.77l45.5,96.85,45.21-96.85H643l-63.63,132V1631Z"/><path class="cls-1" d="M669,1631V1424.5h30.14v178.91h71.73V1631Z"/><path class="cls-1" d="M888.94,1635c-61.68,0-107.46-50.52-107.46-107.18,0-56.1,44.39-107.18,107.46-107.18,61.4,0,107.46,48.85,107.46,107.74C996.4,1584.71,950.34,1635,888.94,1635Zm0-186.73c-53.31,0-77.31,46.62-77.31,79.55,0,33.78,24.28,79.55,77.31,79.55,53.31,0,77.31-46.33,77.31-78.71C966.25,1492,940.3,1448.22,888.94,1448.22Z"/><path class="cls-1" d="M1124,1631l-68.1-95.73h-.56V1631h-30.14V1424.5h63.91c29,0,44.1,7,55,17.31,13.12,12.56,19,31.53,19,48.84,0,54.71-45.77,63.36-59.17,63.36l57.77,77Zm-68.66-99.92H1076c12.28,0,56.93-.56,56.93-40.47,0-17.31-11.72-38.52-45.77-38.52h-31.82Z"/><path class="cls-2" d="M1272.17,1631V1424.5h30.14v178.91H1374V1631Z"/><path class="cls-2" d="M1529.51,1631l-22.9-60.85h-74.24L1409.49,1631h-31.82l78.43-206.54h27.07L1561.6,1631Zm-33.22-88.48-26.24-79h-.55l-26.52,79Z"/><path class="cls-2" d="M1600.12,1569.92c0,7,3.07,37.4,33.49,37.4,19,0,33.22-13.12,33.22-34.89,0-23.17-19-28.19-33.22-33.77-27.63-10.61-34.33-14-43.82-23.17s-14-24.28-14-38.79c0-24,18.7-56.11,57.77-56.11,34.33,0,59.17,22.61,59.17,57.5h-30.14c0-22.89-16.74-29.87-29-29.87-17.86,0-27.63,16.19-27.63,28.19,0,19.82,18.7,25.12,27.63,28.48,26,9.76,63.36,17.86,63.36,67.54,0,36-25.4,62.52-63.36,62.52-28.47,0-63.63-19-63.63-65Z"/><path class="cls-2" d="M1840.43,1631v-89.87H1755.3V1631h-30.14V1424.5h30.14v89h85.13v-89h30.15V1631Z"/><path class="cls-2" d="M1909.38,1631V1424.5h111.36v27.63h-81.22V1513h81.22v27.63h-81.22v62.8h81.22V1631Z"/><path class="cls-2" d="M2153.32,1631l-68.11-95.73h-.55V1631h-30.14V1424.5h63.91c29,0,44.1,7,55,17.31,13.12,12.56,19,31.53,19,48.84,0,54.71-45.77,63.36-59.17,63.36l57.78,77Zm-68.66-99.92h20.65c12.28,0,56.94-.56,56.94-40.47,0-17.31-11.72-38.52-45.78-38.52h-31.81Z"/><path class="cls-2" d="M380.65,1838h14.8c-9.21,39.92-43.55,67.82-89.32,67.82-54.7,0-98.52-43.53-98.52-98.8,0-55.54,43.82-98.25,98.52-98.25,45.77,0,80.11,27.08,89.32,67h-14.8c-8.37-32.1-36.28-53.87-74.52-53.87-47.17,0-84.29,37.12-84.29,85.13,0,47.73,37.12,85.41,84.29,85.41C344.37,1892.47,372.28,1870.42,380.65,1838Z"/><path class="cls-2" d="M556.5,1830.23H503.75V1902h-14v-189.8h67.82c42.43,0,71.45,22.33,71.45,59.17,0,31.82-21.76,52.75-55.26,57.78L636,1902H617.9Zm-52.75-12.84h53.31c34.32,0,58.05-17,58.05-46.06S591.38,1725,557.06,1725H503.75Z"/><path class="cls-2" d="M733.74,1725v75.92H838.12v12.84H733.74v75.08H849.29V1902H719.78v-189.8H849.29V1725Z"/><path class="cls-2" d="M1069.79,1841.39H967.08L939.45,1902H924.37l87.36-189.8h13.68l87.08,189.8h-15.07Zm-5.59-12.56-45.77-100.2-45.77,100.2Z"/><path class="cls-2" d="M1312.89,1725h-72.56v177h-14V1725h-72.84v-12.84h159.36Z"/><path class="cls-2" d="M1407,1712.16V1902h-14v-189.8Z"/><path class="cls-2" d="M1698.91,1807.06c0,54.71-44.1,98.24-98.8,98.24s-98.81-43.53-98.81-98.24,44.1-98.25,98.81-98.25S1698.91,1752.36,1698.91,1807.06Zm-14.23,0c0-47.17-37.4-85.13-84.57-85.13s-84.57,38-84.57,85.13,37.39,84.85,84.57,84.85S1684.68,1854.23,1684.68,1807.06Z"/><path class="cls-2" d="M1951,1712.16V1902h-13.12l-130.9-165.79V1902h-14v-189.8h12.56L1937,1878.51V1712.16Z"/><path class="cls-2" d="M2190.15,1761.56h-14c-5-25.11-23.72-40.46-58.05-40.46-31.26,0-51.91,14.79-51.91,39.07,0,18.14,13.39,29.87,38.24,34.33l34.88,7c32.66,5.86,51.08,22,51.08,48,0,34-27.91,55.81-69.5,55.81-45.21,0-72.84-22.32-78.15-63.35H2057c5,32.65,26.51,50.8,64.47,50.8,32.94,0,54.7-16.19,54.7-41.87,0-18.14-13.11-31.26-39.35-36l-37.68-7.26c-31.54-6.14-47.73-22.61-47.73-47.17,0-31.26,26.52-51.64,65.87-51.64C2157.77,1708.81,2185.12,1727.52,2190.15,1761.56Z"/></svg>