<svg id="Layer_1" data-name="Layer 1" xmlns="http://www.w3.org/2000/svg" viewBox="0 0 2400 2400"><defs><style>.cls-1{fill:#a2bddd;}.cls-2{fill:#808285;}</style></defs><polygon class="cls-1" points="310.96 373.15 310.96 492.9 1065.01 492.9 1065.01 2026.85 1184.76 2026.85 1184.76 492.9 1185.08 492.9 1185.08 373.15 310.96 373.15"/><polygon class="cls-2" points="1333.77 1905.99 1333.77 821.13 1214.03 821.13 1214.03 2017.86 1213.71 1905.99 1213.71 2025.73 2087.82 2025.73 2087.82 1905.99 1333.77 1905.99"/><path class="cls-1" d="M1987.8,1607.41c-45.48,110.25-146.15,181.48-256.47,181.48-154.67,0-280.51-136-280.51-303.12,0-166.58,125.84-302.12,280.51-302.12,113.06,0,214.07,70.71,257.32,180.12l6.48,16.4H2089l-12.13-34.76C2023.66,1192.69,1888,1094,1731.33,1094c-203.52,0-369.09,175.74-369.09,391.75,0,216.57,165.57,392.77,369.09,392.77,75.89,0,148.89-24.53,211.09-70.93,60.64-45.24,106.76-107.88,133.38-181.16l12.75-35.08h-94.14Z"/></svg>